<?xml version="1.0" encoding="UTF-8" standalone="no"?>
<svg
   viewBox="0 0 24 24"
   width="24"
   height="24"
   version="1.1"
   id="svg4"
   sodipodi:docname="favicon.svg"
   inkscape:version="1.2.2 (b0a8486541, 2022-12-01)"
   xmlns:inkscape="http://www.inkscape.org/namespaces/inkscape"
   xmlns:sodipodi="http://sodipodi.sourceforge.net/DTD/sodipodi-0.dtd"
   xmlns="http://www.w3.org/2000/svg"
   xmlns:svg="http://www.w3.org/2000/svg">
  <path
     d="m 23.8535,21.293107 -4.86,-4.86 c 0.667,-2.198 1.153,-4.256 1.153,-6.433 0,-5.5140002 -4.486,-10.00000022687 -10,-10.00000022687 -5.514,0 -10,4.48600002687 -10,10.00000022687 0,5.514 4.486,10 10,10 2.177,0 4.235,-0.486 6.433,-1.153 l 4.86,4.86 a 1,1 0 0 0 1.414,0 1,1 0 0 0 0,-1.414 z m -19.707,-11.293 c 0,-4.4110002 3.589,-8.0000002 8,-8.0000002 4.411,0 8,3.589 8,8.0000002 0,4.411 -3.589,8 -8,8 -4.411,0 -8,-3.589 -8,-8 z"
     id="path2" />
</svg>
